<svg width="1437" height="557" viewBox="0 0 1437 557" fill="none" xmlns="http://www.w3.org/2000/svg">
<g opacity="0.03">
<path d="M1263.8 345.573H1152.77V554.764H1263.8V345.573Z" fill="black"/>
<path d="M981.782 0.622192V105.218H1148.33H1270.46H1437V0.622192H981.782Z" fill="black"/>
<path d="M842.138 345.566C875.446 329.988 902.093 307.733 922.078 278.803C942.063 249.872 950.946 218.716 950.946 183.109C950.946 131.923 933.181 89.6399 895.431 54.0328C859.902 18.4257 815.491 0.622192 762.197 0.622192H491.287L535.699 102.993H764.418C784.403 102.993 804.388 111.894 817.711 127.472C833.255 143.051 839.917 163.08 839.917 185.334C839.917 207.588 833.255 227.617 817.711 243.195C802.167 258.774 784.403 267.675 764.418 267.675H686.698L815.491 556.983H933.181L842.138 345.566Z" fill="black"/>
<path d="M353.122 0.622192H235.432L424.181 450.162H164.374L208.785 345.566H88.8744L0.0516357 554.757H97.7567H119.962H468.592H486.356H588.503L353.122 0.622192Z" fill="black"/>
</g>
</svg>
