<svg width="40" height="40" viewBox="0 0 40 40" fill="none" xmlns="http://www.w3.org/2000/svg">
<path d="M12.9166 35C12.7399 35 12.5616 34.9634 12.395 34.8849C11.9501 34.6817 11.6666 34.2383 11.6666 33.75V20.5484C11.6666 20 11.4435 19.4617 11.0565 19.075L1.34338 9.36829C0.476685 8.50342 0 7.35168 0 6.12671V2.91656C0 1.30829 1.30829 0 2.91656 0H29.1666C30.7751 0 32.0834 1.30829 32.0834 2.91656V6.09161C32.0834 7.32819 31.5732 8.5318 30.6833 9.38995L20.6384 19.0817C20.2316 19.4733 20 20.0201 20 20.5832V27.2168C20 28.5565 19.4168 29.8251 18.4 30.6967L13.7317 34.6982C13.5001 34.8965 13.2101 35 12.9166 35ZM2.91656 2.5C2.68677 2.5 2.5 2.68677 2.5 2.91656V6.12671C2.5 6.68335 2.71667 7.20673 3.11157 7.60162L12.8232 17.3065C13.6768 18.1583 14.1666 19.3399 14.1666 20.5484V31.0333L16.7715 28.8C17.2333 28.4033 17.5 27.8284 17.5 27.2183V20.585C17.5 19.3484 18.0099 18.1451 18.9001 17.2867L28.945 7.59491C29.35 7.2049 29.5816 6.65833 29.5816 6.09497V2.91656C29.5816 2.68677 29.3951 2.5 29.165 2.5H2.91656Z" fill="#9C50BF"/>
<path d="M37.084 40H26.2505C24.6423 40 23.334 38.6917 23.334 37.0834V22.9166C23.334 21.3083 24.6423 20 26.2505 20H37.084C38.6923 20 40.0005 21.3083 40.0005 22.9166V37.0834C40.0005 38.6917 38.6923 40 37.084 40ZM26.2505 22.5C26.0204 22.5 25.834 22.6868 25.834 22.9166V37.0834C25.834 37.3132 26.0204 37.5 26.2505 37.5H37.084C37.3138 37.5 37.5005 37.3132 37.5005 37.0834V22.9166C37.5005 22.6868 37.3138 22.5 37.084 22.5H26.2505Z" fill="#9C50BF"/>
<path d="M33.7505 28.75H29.584C28.894 28.75 28.334 28.19 28.334 27.5C28.334 26.81 28.894 26.25 29.584 26.25H33.7505C34.4406 26.25 35.0005 26.81 35.0005 27.5C35.0005 28.19 34.4406 28.75 33.7505 28.75Z" fill="#9C50BF"/>
<path d="M33.7505 33.75H29.584C28.894 33.75 28.334 33.19 28.334 32.5C28.334 31.81 28.894 31.25 29.584 31.25H33.7505C34.4406 31.25 35.0005 31.81 35.0005 32.5C35.0005 33.19 34.4406 33.75 33.7505 33.75Z" fill="#9C50BF"/>
</svg>
