<svg width="227" height="30" viewBox="0 0 227 30" fill="none" xmlns="http://www.w3.org/2000/svg">
<path d="M80.3654 18.4188H74.6818V29.1273H80.3654V18.4188Z" fill="#0ED6DC"/>
<path d="M65.9289 0.760864V6.11511H74.4542H80.7061H89.2314V0.760864H65.9289Z" fill="#0ED6DC"/>
<path d="M120.832 4.86199C118.218 2.1279 114.921 0.760864 110.943 0.760864H101.394V6.11511H110.943C113.443 6.11511 115.489 6.91255 117.081 8.62135C118.672 10.3301 119.468 12.3807 119.468 15.0009C119.468 17.621 118.672 19.7855 117.081 21.3804C115.489 22.9753 113.443 23.8866 110.943 23.8866H101.394V29.2409H110.943C114.921 29.2409 118.218 27.8738 120.832 25.1398C123.446 22.4057 124.81 18.9881 124.81 15.0009C124.81 10.8997 123.446 7.59607 120.832 4.86199Z" fill="white"/>
<path d="M188.466 29.697C184.146 29.697 180.509 28.33 177.667 25.482C174.825 22.634 173.461 19.1025 173.461 15.0013C173.461 10.7863 174.825 7.25478 177.667 4.5207C180.509 1.6727 184.033 0.305664 188.466 0.305664C191.08 0.305664 193.467 0.875264 195.741 2.12838C197.9 3.3815 199.719 4.97638 200.856 7.02694L195.968 9.87494C195.286 8.62182 194.263 7.59654 192.899 6.91302C191.535 6.2295 190.057 5.88774 188.466 5.88774C185.624 5.88774 183.351 6.7991 181.645 8.5079C179.94 10.2167 179.031 12.4951 179.031 15.2292C179.031 17.9633 179.94 20.2417 181.645 21.9505C183.351 23.6593 185.624 24.5706 188.466 24.5706C190.057 24.5706 191.648 24.2289 192.899 23.5453C194.263 22.8618 195.286 21.8365 195.968 20.5834L200.856 23.4314C199.605 25.482 197.9 27.0769 195.741 28.33C193.581 29.1274 191.194 29.697 188.466 29.697Z" fill="white"/>
<path d="M227 29.127H220.407L209.04 14.5452L219.952 0.760864H226.545L215.633 14.5452L227 29.127Z" fill="white"/>
<path d="M51.0379 18.4185C52.743 17.621 54.107 16.4818 55.13 15.0009C56.1531 13.5199 56.6078 11.925 56.6078 10.1023C56.6078 7.48215 55.6984 5.31767 53.766 3.49495C51.9473 1.67222 49.6738 0.760864 46.9458 0.760864H33.0779L35.3513 6.00119H47.0594C48.0825 6.00119 49.1055 6.45687 49.7875 7.25431C50.5832 8.05175 50.9242 9.07703 50.9242 10.2162C50.9242 11.3554 50.5832 12.3807 49.7875 13.1782C48.9918 13.9756 48.0825 14.4313 47.0594 14.4313H43.0809L49.6739 29.2409H55.6984L51.0379 18.4185Z" fill="#0ED6DC"/>
<path d="M18.0736 0.760864H12.0491L21.7111 23.7727H8.41162L10.685 18.4185H4.54682L0 29.127H5.00151H6.13821H23.9845H24.8939H30.1227L18.0736 0.760864Z" fill="#0ED6DC"/>
<path d="M159.935 4.52037C156.979 1.67237 153.456 0.191406 149.363 0.191406V5.65956C151.978 5.65956 154.251 6.57092 155.956 8.27972C157.775 9.98852 158.684 12.2669 158.684 15.001C158.684 17.7351 157.775 19.8996 155.956 21.7223C154.138 23.4311 151.978 24.3424 149.363 24.3424C146.749 24.3424 144.476 23.4311 142.771 21.7223C140.952 20.0135 140.156 17.7351 140.042 15.1149H134.359C134.359 19.216 135.837 22.7476 138.678 25.5956C141.52 28.4436 145.158 29.9245 149.25 29.9245C153.456 29.9245 156.979 28.4436 159.935 25.5956C162.89 22.7476 164.254 19.216 164.254 15.1149C164.254 10.786 162.89 7.36836 159.935 4.52037Z" fill="white"/>
</svg>
